<svg width="512" height="377" viewBox="0 0 512 377" fill="none" xmlns="http://www.w3.org/2000/svg">
<path d="M144 114H112C103.716 114 97 120.716 97 129C97 137.284 103.716 144 112 144H144C152.284 144 159 137.284 159 129C159 120.716 152.284 114 144 114Z" fill="#585859"/>
<path d="M144 178H112C103.716 178 97 184.716 97 193C97 201.284 103.716 208 112 208H144C152.284 208 159 201.284 159 193C159 184.716 152.284 178 144 178Z" fill="#585859"/>
<path d="M144 242H112C103.716 242 97 248.716 97 257C97 265.284 103.716 272 112 272H144C152.284 272 159 265.284 159 257C159 248.716 152.284 242 144 242Z" fill="#585859"/>
<path d="M272 114H240C231.716 114 225 120.716 225 129C225 137.284 231.716 144 240 144H272C280.284 144 287 137.284 287 129C287 120.716 280.284 114 272 114Z" fill="#585859"/>
<path d="M272 178H240C231.716 178 225 184.716 225 193C225 201.284 231.716 208 240 208H272C280.284 208 287 201.284 287 193C287 184.716 280.284 178 272 178Z" fill="#585859"/>
<path d="M272 242H240C231.716 242 225 248.716 225 257C225 265.284 231.716 272 240 272H272C280.284 272 287 265.284 287 257C287 248.716 280.284 242 272 242Z" fill="#585859"/>
<path d="M400 114H368C359.716 114 353 120.716 353 129C353 137.284 359.716 144 368 144H400C408.284 144 415 137.284 415 129C415 120.716 408.284 114 400 114Z" fill="#585859"/>
<path d="M400 178H368C359.716 178 353 184.716 353 193C353 201.284 359.716 208 368 208H400C408.284 208 415 201.284 415 193C415 184.716 408.284 178 400 178Z" fill="#585859"/>
<path d="M400 242H368C359.716 242 353 248.716 353 257C353 265.284 359.716 272 368 272H400C408.284 272 415 265.284 415 257C415 248.716 408.284 242 400 242Z" fill="#585859"/>
<path d="M467 -70H431V-95C431 -103.284 424.284 -110 416 -110C407.716 -110 401 -103.284 401 -95V-70H271V-95C271 -103.284 264.284 -110 256 -110C247.716 -110 241 -103.284 241 -95V-70H111V-95C111 -103.284 104.284 -110 96 -110C87.716 -110 81 -103.284 81 -95V-70H45C20.187 -70 0 -49.813 0 -25V307C0 331.813 20.187 352 45 352H467C491.813 352 512 331.813 512 307C512 297.318 512 -16.575 512 -25C512 -49.813 491.813 -70 467 -70ZM30 -25C30 -33.271 36.729 -40 45 -40H81V-15C81 -6.716 87.716 0 96 0C104.284 0 111 -6.716 111 -15V-40H241V-15C241 -6.716 247.716 0 256 0C264.284 0 271 -6.716 271 -15V-40H401V-15C401 -6.716 407.716 0 416 0C424.284 0 431 -6.716 431 -15V-40H467C475.271 -40 482 -33.271 482 -25V34H30V-25ZM467 322H45C36.729 322 30 315.271 30 307V64H482V307C482 315.271 475.271 322 467 322Z" fill="#585859"/>
</svg>
