<svg width="18" height="18" viewBox="0 0 18 18" fill="none" xmlns="http://www.w3.org/2000/svg">
<path d="M17.625 0H0.375011C0.168011 0 0 0.268819 0 0.600019C0 0.931219 0.168011 1.20004 0.375011 1.20004H17.625C17.832 1.20004 18 0.931219 18 0.600019C18 0.268819 17.832 0 17.625 0Z" fill="url(#paint0_linear)"/>
<path d="M17.625 8.40002H0.375011C0.168011 8.40002 0 8.66884 0 9.00004C0 9.33124 0.168011 9.60006 0.375011 9.60006H17.625C17.832 9.60006 18 9.33124 18 9.00004C18 8.66884 17.832 8.40002 17.625 8.40002Z" fill="url(#paint1_linear)"/>
<path d="M17.625 16.8H0.375011C0.168011 16.8 0 17.0688 0 17.4C0 17.7312 0.168011 18 0.375011 18H17.625C17.832 18 18 17.7312 18 17.4C18 17.0688 17.832 16.8 17.625 16.8Z" fill="url(#paint2_linear)"/>
<defs>
<linearGradient id="paint0_linear" x1="9" y1="0" x2="9" y2="1.20004" gradientUnits="userSpaceOnUse">
<stop stop-color="#FBD15B"/>
<stop offset="1" stop-color="#FFE6CC" stop-opacity="0.78"/>
</linearGradient>
<linearGradient id="paint1_linear" x1="9" y1="8.40002" x2="9" y2="9.60006" gradientUnits="userSpaceOnUse">
<stop stop-color="#FBD15B"/>
<stop offset="1" stop-color="#FFE6CC" stop-opacity="0.78"/>
</linearGradient>
<linearGradient id="paint2_linear" x1="9" y1="16.8" x2="9" y2="18" gradientUnits="userSpaceOnUse">
<stop stop-color="#ECB315"/>
<stop offset="1" stop-color="#FFE6CC" stop-opacity="0.78"/>
</linearGradient>
</defs>
</svg>
