<svg width="478" height="478" viewBox="0 0 478 478" fill="none" xmlns="http://www.w3.org/2000/svg">
<g clip-path="url(#clip0)">
<path d="M387.415 233.496C436.391 189.467 440.402 114.072 396.373 65.096C355.991 20.177 288.4 12.546 239.02 47.332C185.19 9.342 110.756 22.183 72.766 76.012C37.907 125.405 45.507 193.066 90.455 233.495C34.606 262.935 -0.251022 320.976 0.00197834 384.108V435.308C0.00197834 444.734 7.64298 452.375 17.069 452.375H460.802C470.228 452.375 477.869 444.734 477.869 435.308V384.108C478.121 320.976 443.264 262.935 387.415 233.496ZM307.201 59.842C354.263 59.79 392.457 97.899 392.51 144.961C392.547 178.525 372.879 208.984 342.273 222.76C340.959 223.357 339.645 223.903 338.314 224.467C334.102 226.166 329.758 227.518 325.326 228.512C324.473 228.7 323.619 228.802 322.749 228.973C317.797 229.922 312.772 230.43 307.73 230.492C305.46 230.492 303.173 230.321 300.903 230.117C300.05 230.117 299.196 230.117 298.343 229.946C288.643 228.804 279.207 226.023 270.439 221.72C270.115 221.566 269.739 221.583 269.415 221.447C267.708 220.628 266.002 219.911 264.483 218.989C264.62 218.818 264.705 218.631 264.841 218.46C272.667 208.404 278.837 197.164 283.119 185.163L283.648 183.729C285.595 177.997 287.107 172.127 288.171 166.167C288.325 165.297 288.444 164.46 288.581 163.522C289.568 157.455 290.087 151.322 290.134 145.175C290.085 139.04 289.566 132.918 288.581 126.862C288.444 125.975 288.325 125.155 288.171 124.217C287.107 118.258 285.595 112.387 283.648 106.655L283.119 105.221C278.837 93.22 272.666 81.98 264.841 71.924C264.704 71.753 264.619 71.566 264.483 71.395C277.449 63.831 292.19 59.843 307.201 59.842ZM85.335 145.176C85.214 98.17 123.221 59.966 170.227 59.845C192.261 59.788 213.459 68.279 229.361 83.531C230.351 84.487 231.324 85.442 232.279 86.432C235.21 89.503 237.913 92.783 240.369 96.245C241.12 97.303 241.803 98.43 242.502 99.522C244.887 103.193 246.981 107.045 248.765 111.042C249.192 112.015 249.516 113.005 249.891 113.977C251.69 118.398 253.106 122.966 254.124 127.63C254.244 128.142 254.278 128.654 254.38 129.183C256.542 139.78 256.542 150.705 254.38 161.302C254.278 161.831 254.243 162.343 254.124 162.855C253.107 167.519 251.691 172.087 249.891 176.508C249.516 177.481 249.191 178.471 248.765 179.443C246.979 183.434 244.885 187.28 242.502 190.946C241.802 192.038 241.12 193.165 240.369 194.223C237.914 197.686 235.21 200.965 232.279 204.036C231.323 205.026 230.35 205.982 229.361 206.937C222.451 213.522 214.484 218.899 205.792 222.843C204.41 223.474 203.01 224.055 201.594 224.55C197.48 226.183 193.247 227.495 188.931 228.475C187.856 228.714 186.746 228.85 185.654 229.038C181.02 229.901 176.321 230.374 171.608 230.455H169.731C165.018 230.375 160.319 229.901 155.685 229.038C154.593 228.85 153.483 228.714 152.408 228.475C148.092 227.495 143.858 226.183 139.745 224.55C138.328 223.987 136.929 223.407 135.547 222.843C105.013 209.057 85.374 178.677 85.335 145.176ZM307.201 418.242H34.135V384.109C33.885 326.276 70.323 274.641 124.895 255.495C154.191 267.692 187.144 267.692 216.441 255.495C222.139 257.577 227.692 260.034 233.064 262.851C236.614 264.677 239.891 266.759 243.304 268.858C245.523 270.24 247.775 271.589 249.909 273.108C253.203 275.446 256.309 277.989 259.364 280.6C261.327 282.307 263.272 284.013 265.115 285.72C267.931 288.382 270.576 291.198 273.119 294.083C274.945 296.165 276.72 298.281 278.41 300.466C280.646 303.333 282.779 306.269 284.759 309.289C286.466 311.849 287.985 314.511 289.486 317.174C291.193 320.109 292.763 323.045 294.196 326.1C295.63 329.155 296.893 332.5 298.121 335.76C299.196 338.593 300.34 341.409 301.227 344.293C302.422 348.252 303.258 352.348 304.094 356.444C304.606 358.867 305.272 361.24 305.647 363.697C306.658 370.454 307.177 377.276 307.2 384.109V418.242H307.201ZM443.735 418.242H341.335V384.109C341.335 378.767 341.028 373.476 340.55 368.237C340.413 366.701 340.175 365.182 340.004 363.646C339.543 359.874 339.014 356.137 338.297 352.433C337.99 350.852 337.666 349.264 337.324 347.671C336.505 343.871 335.555 340.105 334.474 336.373C334.116 335.144 333.791 333.898 333.416 332.687C328.637 317.41 321.712 302.89 312.851 289.56L312.185 288.587C309.25 284.229 306.115 280.014 302.781 275.941L302.662 275.787C299.249 271.555 295.545 267.441 291.654 263.55C291.876 263.55 292.115 263.55 292.354 263.55C297.17 264.183 302.02 264.525 306.878 264.574H307.817C312.313 264.535 316.802 264.244 321.266 263.704C322.665 263.533 324.048 263.277 325.447 263.055C329.077 262.498 332.661 261.775 336.199 260.888C337.206 260.632 338.23 260.393 339.254 260.103C343.897 258.84 348.457 257.289 352.907 255.461C407.519 274.588 443.99 326.246 443.736 384.11V418.242H443.735Z" fill="#585859"/>
</g>
<defs>
<clipPath id="clip0">
<rect width="477.869" height="477.869" fill="white"/>
</clipPath>
</defs>
</svg>
